<svg width="22" height="27" viewBox="0 0 22 27" fill="none" xmlns="http://www.w3.org/2000/svg">
<path d="M4.61728 20.909C4.29136 22.3291 4.11481 24.3205 4.2642 25.6189C4.70123 25.9898 5.6834 26.1845 6 26C6.3166 25.8155 7.50659 22.5433 7.71358 21.734C7.91728 20.9631 8.74568 17.8254 8.74568 17.8254C9.27531 18.8533 10.8506 19.7189 12.521 19.7189C17.4914 19.7189 21.0765 15.1611 21.0765 9.49426C21.0765 4.05738 16.6222 0 10.9049 0C3.77531 0 0 4.76066 0 9.94057C0 12.3615 1.29012 15.3504 3.35432 16.3107C3.66667 16.4594 3.84321 16.3918 3.91111 16.0943C3.96543 15.8643 4.25062 14.7418 4.37284 14.2279C4.41358 14.0656 4.4 13.9168 4.2642 13.7545C3.58519 12.9295 3.04198 11.4148 3.04198 10.0082C3.04198 6.38361 5.79876 2.88074 10.4975 2.88074C14.558 2.88074 17.3963 5.62623 17.3963 9.56188C17.3963 13.9979 15.142 17.0816 12.2086 17.0816C10.5926 17.0816 9.37037 15.7426 9.7642 14.1061C10.2395 12.1451 11.1358 10.0352 11.1358 8.62869C11.1358 7.3709 10.4568 6.31598 9.04444 6.31598C7.38765 6.31598 6.05679 8.02008 6.05679 10.3057C6.05679 11.7529 6.54568 12.7402 6.54568 12.7402C6.54568 12.7402 4.91605 19.6242 4.61728 20.909Z" fill="black"/>
</svg>
