<svg width="24" height="24" viewBox="0 0 24 24" fill="none" xmlns="http://www.w3.org/2000/svg">
<path d="M22.1297 8.60237C18.2828 6.87553 14.1775 6 9.92789 6C7.81495 6 5.70504 6.22223 3.65652 6.66065C3.20816 6.75641 2.92259 7.19764 3.01857 7.64599C3.11434 8.09435 3.55556 8.38035 4.00392 8.28415C5.93851 7.87017 7.93147 7.66026 9.92789 7.66026C13.9417 7.66026 17.818 8.48693 21.4496 10.1171C21.5601 10.1666 21.6755 10.1902 21.7892 10.1902C22.1062 10.1902 22.4088 10.0075 22.5469 9.6997C22.7348 9.28139 22.5478 8.79023 22.1297 8.60237Z" fill="black"/>
<path d="M18.6831 16.4238C15.9242 15.1769 12.9786 14.5446 9.92761 14.5446C8.3041 14.5446 6.686 14.7283 5.11826 15.0904C4.67164 15.1935 4.3932 15.6393 4.49631 16.0859C4.59943 16.5328 5.04519 16.8112 5.49204 16.7081C6.93741 16.3741 8.4297 16.2048 9.92761 16.2048C12.7412 16.2048 15.4568 16.7874 17.9993 17.9366C18.1102 17.987 18.2263 18.0106 18.3407 18.0106C18.6567 18.0106 18.959 17.829 19.0975 17.5222C19.2865 17.1046 19.101 16.6127 18.6831 16.4238V16.4238Z" fill="black"/>
<path d="M20.4336 12.4506C17.1222 10.9599 13.5874 10.2041 9.92749 10.2041C8.05537 10.2041 6.18736 10.4071 4.37534 10.8075C3.92763 10.9065 3.64487 11.3496 3.74388 11.7971C3.84289 12.2448 4.28606 12.528 4.73355 12.4286C6.42819 12.0542 8.17557 11.8644 9.92749 11.8644C13.3507 11.8644 16.6563 12.5708 19.752 13.9645C19.8627 14.0143 19.9783 14.0378 20.0923 14.0378C20.409 14.0378 20.7114 13.8558 20.8498 13.5482C21.0381 13.1303 20.8517 12.6389 20.4336 12.4506V12.4506Z" fill="black"/>
<path d="M22.1297 8.60237C18.2828 6.87553 14.1775 6 9.92789 6C7.81495 6 5.70504 6.22223 3.65652 6.66065C3.20816 6.75641 2.92259 7.19764 3.01857 7.64599C3.11434 8.09435 3.55556 8.38035 4.00392 8.28415C5.93851 7.87017 7.93147 7.66026 9.92789 7.66026C13.9417 7.66026 17.818 8.48693 21.4496 10.1171C21.5601 10.1666 21.6755 10.1902 21.7892 10.1902C22.1062 10.1902 22.4088 10.0075 22.5469 9.6997C22.7348 9.28139 22.5478 8.79023 22.1297 8.60237Z" fill="black"/>
<path d="M18.6831 16.4237C15.9242 15.1768 12.9786 14.5444 9.92761 14.5444C8.3041 14.5444 6.686 14.7282 5.11826 15.0903C4.67164 15.1934 4.3932 15.6392 4.49631 16.0858C4.59943 16.5326 5.04519 16.8111 5.49204 16.708C6.93741 16.374 8.4297 16.2047 9.92761 16.2047C12.7412 16.2047 15.4568 16.7873 17.9993 17.9365C18.1102 17.9869 18.2263 18.0104 18.3407 18.0104C18.6567 18.0104 18.959 17.8289 19.0975 17.5221C19.2865 17.1044 19.101 16.6126 18.6831 16.4237V16.4237Z" fill="black"/>
<path d="M20.4336 12.4506C17.1222 10.9599 13.5874 10.2041 9.92749 10.2041C8.05537 10.2041 6.18736 10.4071 4.37534 10.8075C3.92763 10.9065 3.64487 11.3496 3.74388 11.7971C3.84289 12.2448 4.28606 12.528 4.73355 12.4286C6.42819 12.0542 8.17557 11.8644 9.92749 11.8644C13.3507 11.8644 16.6563 12.5708 19.752 13.9645C19.8627 14.0143 19.9783 14.0378 20.0923 14.0378C20.409 14.0378 20.7114 13.8558 20.8498 13.5482C21.0381 13.1303 20.8517 12.6389 20.4336 12.4506V12.4506Z" fill="black"/>
</svg>
